<svg xmlns="http://www.w3.org/2000/svg" width="32" height="32" viewBox="0 0 32 32"><g transform="translate(-263 -263)"><path d="M265.4,292.6H295V295H263V263h2.4Z" transform="translate(0 0)" fill="#fff" fill-rule="evenodd"/><g transform="translate(277.279 280.141)"><path d="M1008,1088.783v-1.765h1.346v1.765Zm0-8.736v-1.765h1.346v1.765Z" transform="translate(-1006.615 -1078.282)" fill="#fff"/><path d="M942.967,1152h3.292v7.4h-4.115V1152Z" transform="translate(-942.144 -1150.45)" fill="#fff"/></g><g transform="translate(287.074 273.618)"><path d="M1473.86,778.5v-1.765h1.345V778.5Zm0-8.736V768h1.345v1.765Z" transform="translate(-1472.476 -768.002)" fill="#fff"/><path d="M1408.823,841.717h3.292v7.4H1408v-7.4Z" transform="translate(-1408 -840.167)" fill="#fff"/></g><g transform="translate(270.254 267.154)"><path d="M673.856,471.063V469.3H675.2v1.765Zm0-8.736v-1.765H675.2v1.765Z" transform="translate(-672.471 -460.562)" fill="#fff"/><path d="M608.823,534.279h3.292v7.4H608v-7.4Z" transform="translate(-608 -532.729)" fill="#fff"/></g><g transform="translate(278.922 264.198)"><path d="M1086.14,330.5v-1.765h1.346V330.5Zm0-8.736V320h1.346v1.765Z" transform="translate(-1084.756 -319.998)" fill="#fff"/><path d="M1021.113,393.716h3.292v7.4h-4.115v-7.4Z" transform="translate(-1020.29 -392.166)" fill="#fff"/></g></g></svg>