<svg xmlns="http://www.w3.org/2000/svg" width="31.634" height="31.634" viewBox="0 0 31.634 31.634"><g transform="translate(-1 -1)"><path d="M31.946,31.258H2.375V1.688A.688.688,0,0,0,1,1.688V31.946a.688.688,0,0,0,.688.688H31.946a.688.688,0,0,0,0-1.375Z" transform="translate(0 0)" fill="#fff"/><path d="M4.688,28.006h5.5a.688.688,0,0,0,.688-.688V13.565a.688.688,0,0,0-.688-.688h-5.5A.688.688,0,0,0,4,13.565V27.318A.688.688,0,0,0,4.688,28.006Zm.688-13.754H9.5V26.631H5.375ZM12.94,28.006h5.5a.688.688,0,0,0,.688-.688V6.688A.688.688,0,0,0,18.442,6h-5.5a.688.688,0,0,0-.688.688V27.318A.688.688,0,0,0,12.94,28.006Zm.688-20.631h4.126V26.631H13.628Zm7.565,20.631h5.5a.688.688,0,0,0,.688-.688v-16.5a.688.688,0,0,0-.688-.688h-5.5a.688.688,0,0,0-.688.688v16.5A.688.688,0,0,0,21.192,28.006Zm.688-16.5h4.126V26.631H21.88Z" transform="translate(1.126 1.877)" fill="#fff"/></g></svg>