<svg xmlns="http://www.w3.org/2000/svg" width="31.996" height="31.996" viewBox="0 0 31.996 31.996"><g transform="translate(0 0)"><path d="M3.466,10.911,3.42,10.9a.387.387,0,0,1-.333-.44L4.173,2.081a.386.386,0,1,1,.766.1L3.866,10.565a.387.387,0,0,1-.387.34Z" transform="translate(10.638 3.131)" fill="#fff" fill-rule="evenodd"/><path d="M4.068,5.367a.387.387,0,1,1-.053-.773l8.75-1.266a.387.387,0,0,1,.113.766L4.121,5.36a.4.4,0,0,1-.053.007Z" transform="translate(14.779 12.074)" fill="#fff" fill-rule="evenodd"/><path d="M7.081,6.3a.387.387,0,0,1-.18-.047L1.97,3.705a.389.389,0,1,1,.353-.693L7.254,5.565a.387.387,0,0,1-.173.733Z" transform="translate(2.376 10.07)" fill="#fff" fill-rule="evenodd"/><path d="M2.122,7.847a.387.387,0,0,1-.2-.72L7.134,3.962a.389.389,0,0,1,.4.666l-5.2,3.166a.387.387,0,0,1-.207.053Z" transform="translate(2.23 15.378)" fill="#fff" fill-rule="evenodd"/><path d="M6.067,10.328a.387.387,0,0,1-.353-.227L3.281,4.743a.391.391,0,1,1,.713-.32L6.42,9.781a.387.387,0,0,1-.353.546Z" transform="translate(11.674 16.996)" fill="#fff" fill-rule="evenodd"/><ellipse cx="5.07" cy="5.053" rx="5.07" ry="5.053" transform="translate(8.765 12.667)" fill="#fff"/><ellipse cx="2.639" cy="2.632" rx="2.639" ry="2.632" transform="translate(12.982)" fill="#fff"/><ellipse cx="2.246" cy="2.233" rx="2.246" ry="2.233" transform="translate(0.32 10.09)" fill="#fff"/><ellipse cx="2.306" cy="2.293" rx="2.306" ry="2.293" transform="translate(0 21.586)" fill="#fff"/><ellipse cx="2.639" cy="2.632" rx="2.639" ry="2.632" transform="translate(16.265 26.731)" fill="#fff"/><ellipse cx="2.213" cy="2.206" rx="2.213" ry="2.206" transform="translate(27.571 13.236)" fill="#fff"/></g><path d="M0,0H32V32H0Z" fill="none" fill-rule="evenodd"/></svg>