<svg xmlns="http://www.w3.org/2000/svg" width="31.744" height="30.766" viewBox="0 0 31.744 30.766"><g transform="translate(-49.868 -62.237)"><path d="M51.043,62.824a.588.588,0,0,0-1.175,0V92.416a.588.588,0,0,0,.588.588H81.024a.588.588,0,1,0,0-1.175H51.874l25.651-25.65v1.709a.588.588,0,0,0,1.175,0V64.759a.588.588,0,0,0-.588-.588H74.985a.588.588,0,1,0,0,1.175h1.709L51.043,91Z" transform="translate(0)" fill="#fff"/><g transform="translate(53.534 66.589)"><path d="M65.463,83.26a2.506,2.506,0,1,0,2.506-2.506A2.509,2.509,0,0,0,65.463,83.26Zm3.837,0a1.331,1.331,0,1,1-1.331-1.331A1.333,1.333,0,0,1,69.3,83.26Zm9.036,10.932a2.506,2.506,0,1,0,2.506-2.506A2.509,2.509,0,0,0,78.336,94.193Zm3.838,0a1.331,1.331,0,1,1-1.331-1.331A1.333,1.333,0,0,1,82.174,94.193ZM85.9,90.765A2.506,2.506,0,1,0,83.4,88.259,2.509,2.509,0,0,0,85.9,90.765Zm0-3.837a1.331,1.331,0,1,1-1.331,1.331A1.332,1.332,0,0,1,85.9,86.927Zm-3.729,13.294a2.506,2.506,0,1,0,2.506-2.506A2.509,2.509,0,0,0,82.174,100.222Zm2.506-1.331a1.331,1.331,0,1,1-1.331,1.331A1.332,1.332,0,0,1,84.68,98.891Z" transform="translate(-65.463 -80.754)" fill="#fff"/><path d="M99.513,137.617a2.506,2.506,0,1,0,2.506-2.506A2.509,2.509,0,0,0,99.513,137.617Zm3.837,0a1.331,1.331,0,1,1-1.331-1.331A1.333,1.333,0,0,1,103.35,137.617Zm13.681-4.789a2.506,2.506,0,1,0-2.506,2.506A2.509,2.509,0,0,0,117.031,132.827Zm-3.837,0a1.331,1.331,0,1,1,1.331,1.331A1.333,1.333,0,0,1,113.194,132.827Z" transform="translate(-91.51 -118.671)" fill="#fff"/><path d="M74.985,83.26a2.506,2.506,0,1,0,2.506-2.506A2.509,2.509,0,0,0,74.985,83.26Zm3.837,0a1.331,1.331,0,1,1-1.331-1.331A1.333,1.333,0,0,1,78.822,83.26ZM65.463,92.8a2.506,2.506,0,1,0,2.506-2.506A2.509,2.509,0,0,0,65.463,92.8Zm3.837,0a1.331,1.331,0,1,1-1.331-1.331A1.333,1.333,0,0,1,69.3,92.8Z" transform="translate(-65.463 -80.754)" fill="#fff"/><path d="M65.463,83.26a2.506,2.506,0,1,0,2.506-2.506A2.509,2.509,0,0,0,65.463,83.26Zm4.66,0a2.154,2.154,0,1,1-2.154-2.154A2.156,2.156,0,0,1,70.123,83.26Z" transform="translate(-65.463 -80.754)" fill="#fff"/><path d="M146.946,108.886a1.684,1.684,0,1,0-1.684-1.684A1.685,1.685,0,0,0,146.946,108.886Zm0-3.015a1.331,1.331,0,1,1-1.331,1.331A1.332,1.332,0,0,1,146.946,105.872Z" transform="translate(-126.506 -99.698)" fill="#fff"/><g transform="translate(16.711 16.961)"><path d="M136.559,155.422a2.506,2.506,0,1,0,2.506-2.506A2.509,2.509,0,0,0,136.559,155.422Zm2.506-2.154a2.154,2.154,0,1,1-2.154,2.154A2.156,2.156,0,0,1,139.065,153.269Z" transform="translate(-136.559 -152.916)" fill="#fff"/><path d="M141.742,159.783a1.684,1.684,0,1,0-1.684-1.684A1.685,1.685,0,0,0,141.742,159.783Zm0-3.015a1.331,1.331,0,1,1-1.331,1.331A1.332,1.332,0,0,1,141.742,156.769Z" transform="translate(-139.236 -155.593)" fill="#fff"/></g><g transform="translate(0 9.535)"><path d="M65.463,123.826a2.506,2.506,0,1,0,2.506-2.506A2.509,2.509,0,0,0,65.463,123.826Zm4.66,0a2.154,2.154,0,1,1-2.154-2.154A2.156,2.156,0,0,1,70.123,123.826Z" transform="translate(-65.463 -121.32)" fill="#fff"/><path d="M68.963,126.5a1.684,1.684,0,1,0,1.684-1.684A1.685,1.685,0,0,0,68.963,126.5Zm3.015,0a1.331,1.331,0,1,1-1.331-1.331A1.333,1.333,0,0,1,71.978,126.5Z" transform="translate(-68.14 -123.997)" fill="#fff"/></g></g></g></svg>