<svg xmlns="http://www.w3.org/2000/svg" width="24" height="24" viewBox="0 0 24 24"><path d="M14.042,22.044a1.333,1.333,0,1,0,1.333-1.333A1.337,1.337,0,0,0,14.042,22.044Zm0-18.669V8.706h2.665V6.15A9.328,9.328,0,1,1,6.04,15.375a9.235,9.235,0,0,1,2.106-5.9l7.229,7.229,1.881-1.881L8.187,5.763v.029a11.974,11.974,0,1,0,7.188-2.417Zm9.335,12a1.333,1.333,0,1,0-1.333,1.333A1.337,1.337,0,0,0,23.377,15.375Zm-16,0a1.333,1.333,0,1,0,1.333-1.333A1.337,1.337,0,0,0,7.373,15.375Z" transform="translate(27.375 27.375) rotate(-180)" fill="#fff"/></svg>